<svg width="1080" height="1080" viewBox="0 0 1080 1080" fill="none" xmlns="http://www.w3.org/2000/svg">
<g clip-path="url(#clip0_2_2)">
<mask id="mask0_2_2" style="mask-type:alpha" maskUnits="userSpaceOnUse" x="45" y="-221" width="933" height="932">
<rect x="45" y="244.581" width="649" height="669" transform="rotate(-45.8388 45 244.581)" fill="#d9d5ce"/>
</mask>
<g mask="url(#mask0_2_2)">
<path d="M890.833 507.723V540C890.79 615.654 866.292 689.268 820.994 749.862C775.695 810.456 712.023 854.784 639.474 876.235C566.924 897.686 489.384 895.11 418.417 868.892C347.451 842.673 286.861 794.217 245.684 730.75C204.507 667.283 184.949 592.206 189.927 516.716C194.905 441.225 224.152 369.366 273.306 311.856C322.46 254.345 388.888 214.265 462.683 197.592C536.477 180.919 613.684 188.547 682.789 219.338" stroke="#d9d5ce" stroke-width="100" stroke-linecap="round" stroke-linejoin="round"/>
<path d="M890.833 259.333L540 610.518L434.75 505.268" stroke="#d9d5ce" stroke-width="100" stroke-linecap="round" stroke-linejoin="round"/>
</g>
<mask id="mask1_2_2" style="mask-type:alpha" maskUnits="userSpaceOnUse" x="139" y="155" width="802" height="786">
<path d="M780.523 282.386L802.003 306.478C852.317 362.977 883.019 434.227 889.531 509.6C896.043 584.974 878.016 660.433 838.139 724.725C798.261 789.016 738.669 838.694 668.251 866.351C597.833 894.007 520.361 898.159 447.39 878.189C374.419 858.218 309.858 815.194 263.337 755.534C216.815 695.874 190.825 622.773 189.243 547.135C187.662 471.497 210.572 397.374 254.558 335.821C298.545 274.268 361.25 228.582 433.322 205.578" stroke="#d9d5ce" stroke-width="100" stroke-linecap="round" stroke-linejoin="round"/>
</mask>
<g mask="url(#mask1_2_2)">
<path d="M891 507.909V540.201C890.957 615.891 866.447 689.54 821.127 750.163C775.807 810.786 712.105 855.135 639.521 876.596C566.937 898.056 489.36 895.479 418.36 869.249C347.36 843.018 286.741 794.539 245.545 731.042C204.348 667.545 184.781 592.432 189.761 516.905C194.741 441.379 224.002 369.486 273.18 311.948C322.357 254.41 388.817 214.311 462.646 197.63C536.476 180.949 613.719 188.581 682.857 219.387" stroke="#2C5364" stroke-width="108" stroke-linecap="round" stroke-linejoin="round"/>
<mask id="mask2_2_2" style="mask-type:alpha" maskUnits="userSpaceOnUse" x="813" y="446" width="176" height="228">
<rect x="813" y="446" width="176" height="228" fill="#d9d5ce"/>
</mask>
<g mask="url(#mask2_2_2)">
<path d="M891.133 505.632L890.996 538.245C890.63 614.69 864.622 688.964 816.851 749.992C769.08 811.02 702.105 855.531 625.915 876.886C549.725 898.242 468.403 895.298 394.076 868.494C319.749 841.69 256.4 792.462 213.477 728.151C170.555 663.84 150.358 587.893 155.899 511.636C161.44 435.379 192.422 362.898 244.225 305.003C296.027 247.109 365.875 206.902 443.35 190.379C520.825 173.857 601.777 181.904 674.132 213.321" stroke="#3e748c" stroke-width="108" stroke-linecap="round" stroke-linejoin="round"/>
</g>
<ellipse cx="208" cy="840.5" rx="460" ry="444.5" fill="#356479"/>
<ellipse cx="837" cy="942.5" rx="460" ry="444.5" fill="#3e748c"/>
</g>
</g>
<defs>
<clipPath id="clip0_2_2">
<rect width="1080" height="1080" fill="#d9d5ce"/>
</clipPath>
</defs>
</svg>
